<svg width="40" height="41" viewBox="0 0 71 72" fill="none" xmlns="http://www.w3.org/2000/svg">
<path d="M28.8517 61.1802C25.0296 56.9916 23.7248 57.1186 10.6153 62.5001C11.1247 61.2148 11.3941 60.2701 11.8489 59.4288C16.1164 51.5322 21.3653 44.3422 27.4458 37.7948C37.41 27.0661 48.1026 17.1278 59.8337 8.38353C62.291 6.55188 64.5802 4.18345 68.1497 4.28944C68.8359 4.30984 69.5537 2.82119 70.2569 2.0287C70.0382 1.64767 69.8195 1.26665 69.6007 0.885562C67.8598 1.22193 65.9303 1.18986 64.4166 1.9699C61.0505 3.70464 57.6878 5.57443 54.6866 7.87016C43.583 16.3634 32.8966 25.4146 23.7113 35.9993C18.2169 42.3305 13.6196 49.4618 8.69958 56.293C7.40627 58.0889 6.41303 60.1061 4.78961 62.8555C4.67314 61.0313 4.41213 60.0396 4.58393 59.1354C5.74695 53.0159 7.01577 46.9178 8.2161 40.8057C8.50432 39.3386 9.74103 37.3273 7.63308 36.6253C5.48324 35.9094 5.31314 38.3018 4.83782 39.6682C1.76859 48.4907 0.399967 57.6199 0.0989688 66.982C-0.0410975 71.3388 2.21005 72.4495 5.78463 70.5159C8.8475 68.8591 11.8699 67.0906 14.7411 65.1219C18.7985 62.3399 23.1384 60.7357 28.8517 61.1802Z" fill="white"/>
</svg>
