<svg width="49" height="48" viewBox="0 0 49 48" fill="none" xmlns="http://www.w3.org/2000/svg">
<path d="M10.3971 24.8665L11.9011 24L10.3971 23.1335L1.3677 17.9313L7.66109 7.06627L16.7007 12.2623L18.1982 13.1231L18.199 11.3958L18.2041 1H30.7959L30.801 11.3958L30.8018 13.1231L32.2994 12.2623L41.3388 7.06627L47.6323 17.9313L38.6028 23.1335L37.0988 24L38.6028 24.8665L47.6323 30.0687L41.3388 40.9338L32.2994 35.7377L30.8018 34.877L30.801 36.6042L30.7959 47H18.2041L18.199 36.6042L18.1982 34.877L16.7007 35.7377L7.66109 40.9338L1.3677 30.0687L10.3971 24.8665Z" fill="white" fill-opacity="0.48" stroke="white" stroke-width="2"/>
</svg>
