<svg width="54" height="70" viewBox="0 0 54 70" fill="none" xmlns="http://www.w3.org/2000/svg">
<path d="M15.3971 37.8665L16.9011 37L15.3971 36.1335L6.3677 30.9313L12.6611 20.0663L21.7007 25.2623L23.1982 26.1231L23.199 24.3958L23.2041 14H35.7959L35.801 24.3958L35.8018 26.1231L37.2994 25.2623L46.3388 20.0663L52.6323 30.9313L43.6028 36.1335L42.0988 37L43.6028 37.8665L52.6323 43.0687L46.3388 53.9338L37.2994 48.7377L35.8018 47.877L35.801 49.6042L35.7959 60H23.2041L23.199 49.6042L23.1982 47.877L21.7007 48.7377L12.6611 53.9338L6.3677 43.0687L15.3971 37.8665Z" fill="white" fill-opacity="0.48" stroke="white" stroke-width="2"/>
<path d="M34.7734 38H29.4134V26.24C29.4134 24.5867 29.1201 23.3733 28.5334 22.6C27.9734 21.8 27.1868 21.4 26.1734 21.4C25.1334 21.4 24.1334 21.8133 23.1734 22.64C22.2401 23.44 21.5734 24.4933 21.1734 25.8V38H15.8134V26.24C15.8134 24.56 15.5201 23.3333 14.9334 22.56C14.3734 21.7867 13.5868 21.4 12.5734 21.4C11.5334 21.4 10.5334 21.8 9.57344 22.6C8.6401 23.4 7.97344 24.4533 7.57344 25.76V38H2.21344V17.04H7.05344V20.92C7.85344 19.56 8.9201 18.52 10.2534 17.8C11.5868 17.0533 13.1201 16.68 14.8534 16.68C16.5868 16.68 17.9334 17.1067 18.8934 17.96C19.8801 18.8133 20.5068 19.8667 20.7734 21.12C21.6268 19.68 22.7068 18.5867 24.0134 17.84C25.3468 17.0667 26.8401 16.68 28.4934 16.68C29.8001 16.68 30.8534 16.92 31.6534 17.4C32.4801 17.8533 33.1201 18.48 33.5734 19.28C34.0268 20.0533 34.3334 20.9333 34.4934 21.92C34.6801 22.9067 34.7734 23.9067 34.7734 24.92V38Z" fill="#CFA5F9"/>
<path d="M35.2884 59.12C33.9018 59.12 32.6218 58.8533 31.4484 58.32C30.3018 57.76 29.3018 56.9867 28.4484 56C27.6218 55.0133 26.9818 53.88 26.5284 52.6C26.0751 51.32 25.8484 49.96 25.8484 48.52C25.8484 47 26.0884 45.5867 26.5684 44.28C27.0484 42.9733 27.7151 41.8267 28.5684 40.84C29.4484 39.8267 30.4751 39.0533 31.6484 38.52C32.8484 37.96 34.1684 37.68 35.6084 37.68C37.2351 37.68 38.6618 38.0533 39.8884 38.8C41.1151 39.52 42.1284 40.4933 42.9284 41.72V38.04H47.6084V58C47.6084 60.08 47.1018 61.8533 46.0884 63.32C45.1018 64.8133 43.7284 65.9467 41.9684 66.72C40.2084 67.52 38.2084 67.92 35.9684 67.92C33.7018 67.92 31.7818 67.5333 30.2084 66.76C28.6351 66.0133 27.2884 64.9467 26.1684 63.56L29.0884 60.72C29.8884 61.7067 30.8884 62.48 32.0884 63.04C33.3151 63.6 34.6084 63.88 35.9684 63.88C37.1151 63.88 38.1551 63.6667 39.0884 63.24C40.0484 62.84 40.8084 62.2 41.3684 61.32C41.9551 60.4667 42.2484 59.36 42.2484 58V55.36C41.5551 56.56 40.5684 57.4933 39.2884 58.16C38.0351 58.8 36.7018 59.12 35.2884 59.12ZM37.0884 54.84C37.6751 54.84 38.2351 54.7467 38.7684 54.56C39.3018 54.3733 39.7951 54.12 40.2484 53.8C40.7018 53.48 41.1018 53.1067 41.4484 52.68C41.7951 52.2267 42.0618 51.7733 42.2484 51.32V46.32C41.9284 45.4933 41.4751 44.7733 40.8884 44.16C40.3284 43.5467 39.6884 43.08 38.9684 42.76C38.2751 42.4133 37.5418 42.24 36.7684 42.24C35.9418 42.24 35.1951 42.4133 34.5284 42.76C33.8618 43.1067 33.2884 43.6 32.8084 44.24C32.3284 44.8533 31.9551 45.5467 31.6884 46.32C31.4484 47.0667 31.3284 47.8533 31.3284 48.68C31.3284 49.5333 31.4751 50.3333 31.7684 51.08C32.0618 51.8267 32.4618 52.48 32.9684 53.04C33.5018 53.6 34.1151 54.04 34.8084 54.36C35.5284 54.68 36.2884 54.84 37.0884 54.84Z" fill="#CFA5F9"/>
</svg>
